# xmcd CD database file
#
# Track frame offsets:
#	150
#	13081
#	28622
#
# Disc length: 682 seconds
#
# Revision: 0
# Processed by: cddbd v1.5PL3 Copyright (c) Steve Scherf et al.
# Submitted via: CDex 1.50
#
DISCID=1a02a803
DTITLE=NUCLEUS - demo
DYEAR=1900
DGENRE=Hardcore
TTITLE0=Seesaw
TTITLE1=Gladious
TTITLE2=Made In NUCLEUS
EXTD=
EXTT0=
EXTT1=
EXTT2=
PLAYORDER=
